<mxfile host="app.diagrams.net" modified="2024-01-02T15:32:32.241Z" agent="Mozilla/5.0 (Windows NT 10.0; Win64; x64) AppleWebKit/537.36 (KHTML, like Gecko) Chrome/120.0.0.0 Safari/537.36" etag="cUiU8jbHMSKau0vSEWmx" version="22.1.16" type="google">
  <diagram name="Sayfa -1" id="CGUSwAgVvF5IjyZ1RsWp">
    <mxGraphModel grid="1" page="1" gridSize="10" guides="1" tooltips="1" connect="1" arrows="1" fold="1" pageScale="1" pageWidth="827" pageHeight="1169" math="0" shadow="0">
      <root>
        <mxCell id="0" />
        <mxCell id="1" parent="0" />
        <mxCell id="8nqFbR7EcI_vKEfvdort-18" value="" style="rounded=1;whiteSpace=wrap;html=1;" vertex="1" parent="1">
          <mxGeometry x="310" y="620" width="240" height="450" as="geometry" />
        </mxCell>
        <mxCell id="8nqFbR7EcI_vKEfvdort-20" value="USERS&lt;br&gt;createAccount&lt;br&gt;login&lt;br&gt;editProfile deleteAccount" style="rounded=1;whiteSpace=wrap;html=1;" vertex="1" parent="1">
          <mxGeometry x="365" y="680" width="125" height="90" as="geometry" />
        </mxCell>
        <mxCell id="8nqFbR7EcI_vKEfvdort-23" value="INGREDIENTS&lt;br&gt;getIngredients" style="rounded=1;whiteSpace=wrap;html=1;" vertex="1" parent="1">
          <mxGeometry x="360" y="940" width="140" height="80" as="geometry" />
        </mxCell>
        <mxCell id="8nqFbR7EcI_vKEfvdort-31" value="" style="rounded=1;whiteSpace=wrap;html=1;" vertex="1" parent="1">
          <mxGeometry x="-100" y="800" width="260" height="260" as="geometry" />
        </mxCell>
        <mxCell id="8nqFbR7EcI_vKEfvdort-32" value="&lt;font style=&quot;font-size: 18px;&quot;&gt;CONTROLLER&lt;/font&gt;" style="text;html=1;align=center;verticalAlign=middle;resizable=0;points=[];autosize=1;strokeColor=none;fillColor=none;" vertex="1" parent="1">
          <mxGeometry x="-50" y="805" width="150" height="40" as="geometry" />
        </mxCell>
        <mxCell id="8nqFbR7EcI_vKEfvdort-33" value="USER" style="rounded=1;whiteSpace=wrap;html=1;" vertex="1" parent="1">
          <mxGeometry x="-40" y="850" width="120" height="60" as="geometry" />
        </mxCell>
        <mxCell id="8nqFbR7EcI_vKEfvdort-38" value="" style="endArrow=classic;html=1;rounded=0;entryX=0.001;entryY=0.118;entryDx=0;entryDy=0;entryPerimeter=0;" edge="1" parent="1" source="8nqFbR7EcI_vKEfvdort-31" target="8nqFbR7EcI_vKEfvdort-18">
          <mxGeometry width="50" height="50" relative="1" as="geometry">
            <mxPoint x="410" y="670" as="sourcePoint" />
            <mxPoint x="460" y="620" as="targetPoint" />
          </mxGeometry>
        </mxCell>
        <mxCell id="8nqFbR7EcI_vKEfvdort-39" value="" style="endArrow=classic;html=1;rounded=0;exitX=-0.01;exitY=0.317;exitDx=0;exitDy=0;exitPerimeter=0;entryX=0.995;entryY=0.339;entryDx=0;entryDy=0;entryPerimeter=0;" edge="1" parent="1" source="8nqFbR7EcI_vKEfvdort-18" target="8nqFbR7EcI_vKEfvdort-31">
          <mxGeometry width="50" height="50" relative="1" as="geometry">
            <mxPoint x="410" y="670" as="sourcePoint" />
            <mxPoint x="460" y="620" as="targetPoint" />
          </mxGeometry>
        </mxCell>
        <mxCell id="8nqFbR7EcI_vKEfvdort-41" value="" style="fontColor=#0066CC;verticalAlign=top;verticalLabelPosition=bottom;labelPosition=center;align=center;html=1;outlineConnect=0;fillColor=#CCCCCC;strokeColor=#6881B3;gradientColor=none;gradientDirection=north;strokeWidth=2;shape=mxgraph.networks.virtual_pc;" vertex="1" parent="1">
          <mxGeometry x="-460" y="1245" width="115" height="85" as="geometry" />
        </mxCell>
        <mxCell id="8nqFbR7EcI_vKEfvdort-42" value="" style="endArrow=classic;html=1;rounded=0;entryX=0.99;entryY=0.99;entryDx=0;entryDy=0;entryPerimeter=0;" edge="1" parent="1" target="8nqFbR7EcI_vKEfvdort-41">
          <mxGeometry width="50" height="50" relative="1" as="geometry">
            <mxPoint x="300" y="1345" as="sourcePoint" />
            <mxPoint x="450" y="1300" as="targetPoint" />
          </mxGeometry>
        </mxCell>
        <mxCell id="8nqFbR7EcI_vKEfvdort-43" value="" style="shape=datastore;whiteSpace=wrap;html=1;" vertex="1" parent="1">
          <mxGeometry x="875" y="1120" width="60" height="60" as="geometry" />
        </mxCell>
        <mxCell id="8nqFbR7EcI_vKEfvdort-44" value="&lt;font style=&quot;font-size: 24px;&quot;&gt;DATABASE&lt;/font&gt;" style="text;html=1;align=center;verticalAlign=middle;resizable=0;points=[];autosize=1;strokeColor=none;fillColor=none;" vertex="1" parent="1">
          <mxGeometry x="850" y="1200" width="150" height="40" as="geometry" />
        </mxCell>
        <mxCell id="8nqFbR7EcI_vKEfvdort-45" value="" style="endArrow=classic;html=1;rounded=0;entryX=0.15;entryY=0.05;entryDx=0;entryDy=0;entryPerimeter=0;exitX=1.007;exitY=0.289;exitDx=0;exitDy=0;exitPerimeter=0;" edge="1" parent="1" source="8nqFbR7EcI_vKEfvdort-18" target="8nqFbR7EcI_vKEfvdort-43">
          <mxGeometry width="50" height="50" relative="1" as="geometry">
            <mxPoint x="400" y="740" as="sourcePoint" />
            <mxPoint x="450" y="690" as="targetPoint" />
          </mxGeometry>
        </mxCell>
        <mxCell id="8nqFbR7EcI_vKEfvdort-46" value="" style="endArrow=classic;html=1;rounded=0;entryX=0.997;entryY=0.417;entryDx=0;entryDy=0;entryPerimeter=0;" edge="1" parent="1" target="8nqFbR7EcI_vKEfvdort-18">
          <mxGeometry width="50" height="50" relative="1" as="geometry">
            <mxPoint x="880" y="1170" as="sourcePoint" />
            <mxPoint x="450" y="690" as="targetPoint" />
          </mxGeometry>
        </mxCell>
        <mxCell id="8nqFbR7EcI_vKEfvdort-48" value="&lt;font style=&quot;font-size: 24px;&quot;&gt;Hungerger Logical View - MVC Architecture&lt;/font&gt;" style="swimlane;whiteSpace=wrap;html=1;" vertex="1" parent="1">
          <mxGeometry x="-200" y="560" width="1040" height="1310" as="geometry" />
        </mxCell>
        <mxCell id="8nqFbR7EcI_vKEfvdort-19" value="&lt;font style=&quot;font-size: 18px;&quot;&gt;MODEL&lt;/font&gt;" style="text;html=1;align=center;verticalAlign=middle;resizable=0;points=[];autosize=1;strokeColor=none;fillColor=none;" vertex="1" parent="8nqFbR7EcI_vKEfvdort-48">
          <mxGeometry x="585" y="75" width="90" height="40" as="geometry" />
        </mxCell>
        <mxCell id="8nqFbR7EcI_vKEfvdort-21" value="RECIPES&lt;br&gt;createRecipe,&lt;br&gt;deleteRecipe,&lt;br&gt;editRecipe,&lt;br&gt;fetchPrices&lt;br&gt;searchRecipe,&lt;br&gt;rateRecipe&lt;br&gt;commentRecipe" style="rounded=1;whiteSpace=wrap;html=1;" vertex="1" parent="8nqFbR7EcI_vKEfvdort-48">
          <mxGeometry x="545" y="230" width="160" height="130" as="geometry" />
        </mxCell>
        <mxCell id="8nqFbR7EcI_vKEfvdort-34" value="RECIPE" style="rounded=1;whiteSpace=wrap;html=1;" vertex="1" parent="8nqFbR7EcI_vKEfvdort-48">
          <mxGeometry x="160" y="400" width="120" height="60" as="geometry" />
        </mxCell>
        <mxCell id="8nqFbR7EcI_vKEfvdort-25" value="" style="rounded=1;whiteSpace=wrap;html=1;" vertex="1" parent="8nqFbR7EcI_vKEfvdort-48">
          <mxGeometry x="510" y="610" width="230" height="370" as="geometry" />
        </mxCell>
        <mxCell id="8nqFbR7EcI_vKEfvdort-26" value="&lt;font style=&quot;font-size: 18px;&quot;&gt;VIEW&lt;/font&gt;" style="text;html=1;align=center;verticalAlign=middle;resizable=0;points=[];autosize=1;strokeColor=none;fillColor=none;" vertex="1" parent="8nqFbR7EcI_vKEfvdort-48">
          <mxGeometry x="580" y="615" width="70" height="40" as="geometry" />
        </mxCell>
        <mxCell id="8nqFbR7EcI_vKEfvdort-27" value="APP" style="rounded=1;whiteSpace=wrap;html=1;" vertex="1" parent="8nqFbR7EcI_vKEfvdort-48">
          <mxGeometry x="555" y="670" width="120" height="60" as="geometry" />
        </mxCell>
        <mxCell id="8nqFbR7EcI_vKEfvdort-28" value="USER" style="rounded=1;whiteSpace=wrap;html=1;" vertex="1" parent="8nqFbR7EcI_vKEfvdort-48">
          <mxGeometry x="555" y="770" width="120" height="60" as="geometry" />
        </mxCell>
        <mxCell id="8nqFbR7EcI_vKEfvdort-29" value="RECIPE" style="rounded=1;whiteSpace=wrap;html=1;" vertex="1" parent="8nqFbR7EcI_vKEfvdort-48">
          <mxGeometry x="555" y="860" width="120" height="60" as="geometry" />
        </mxCell>
        <mxCell id="8nqFbR7EcI_vKEfvdort-49" value="&lt;font style=&quot;font-size: 24px;&quot;&gt;CLIENT&lt;/font&gt;" style="text;html=1;align=center;verticalAlign=middle;resizable=0;points=[];autosize=1;strokeColor=none;fillColor=none;" vertex="1" parent="1">
          <mxGeometry x="-460" y="1350" width="110" height="40" as="geometry" />
        </mxCell>
        <mxCell id="Yi5iG1Vt4cUFX6vKCCD7-1" value="" style="shape=datastore;whiteSpace=wrap;html=1;" vertex="1" parent="1">
          <mxGeometry x="910" y="880" width="60" height="60" as="geometry" />
        </mxCell>
        <mxCell id="Yi5iG1Vt4cUFX6vKCCD7-2" value="&lt;font style=&quot;font-size: 24px;&quot;&gt;MARKETPLACE&lt;/font&gt;" style="text;html=1;align=center;verticalAlign=middle;resizable=0;points=[];autosize=1;strokeColor=none;fillColor=none;" vertex="1" parent="1">
          <mxGeometry x="840" y="950" width="200" height="40" as="geometry" />
        </mxCell>
        <mxCell id="41BEDNv_5Jo0bO845epA-2" value="" style="endArrow=classic;startArrow=classic;html=1;rounded=0;exitX=0.959;exitY=0.975;exitDx=0;exitDy=0;exitPerimeter=0;entryX=0;entryY=0;entryDx=0;entryDy=0;" edge="1" parent="1" source="8nqFbR7EcI_vKEfvdort-31" target="8nqFbR7EcI_vKEfvdort-25">
          <mxGeometry width="50" height="50" relative="1" as="geometry">
            <mxPoint x="150" y="1470" as="sourcePoint" />
            <mxPoint x="290" y="1360" as="targetPoint" />
          </mxGeometry>
        </mxCell>
        <mxCell id="41BEDNv_5Jo0bO845epA-3" value="" style="endArrow=classic;startArrow=classic;html=1;rounded=0;" edge="1" parent="1" source="Yi5iG1Vt4cUFX6vKCCD7-2" target="8nqFbR7EcI_vKEfvdort-21">
          <mxGeometry width="50" height="50" relative="1" as="geometry">
            <mxPoint x="400" y="1100" as="sourcePoint" />
            <mxPoint x="470" y="930" as="targetPoint" />
          </mxGeometry>
        </mxCell>
        <mxCell id="nP3DoytRdd_TgLEyKwbk-1" style="edgeStyle=orthogonalEdgeStyle;rounded=0;orthogonalLoop=1;jettySize=auto;html=1;exitX=0.5;exitY=1;exitDx=0;exitDy=0;" edge="1" parent="1" source="8nqFbR7EcI_vKEfvdort-18" target="8nqFbR7EcI_vKEfvdort-18">
          <mxGeometry relative="1" as="geometry" />
        </mxCell>
      </root>
    </mxGraphModel>
  </diagram>
</mxfile>
